<?xml version="1.0" encoding="utf-8"?>
<!-- Generator: Adobe Illustrator 17.0.0, SVG Export Plug-In . SVG Version: 6.00 Build 0)  -->
<!DOCTYPE svg PUBLIC "-//W3C//DTD SVG 1.1//EN" "http://www.w3.org/Graphics/SVG/1.1/DTD/svg11.dtd">
<svg version="1.1" xmlns="http://www.w3.org/2000/svg" xmlns:xlink="http://www.w3.org/1999/xlink" x="0px" y="0px" width="500px"
	 height="271px" viewBox="0 0 500 271" enable-background="new 0 0 500 271" xml:space="preserve">
<g id="Layer_1">
	<path fill="#FFBC00" d="M70.284,70.315c-15.291,0-55.099,0.081-67.853,0.11v136.082h25.622c0,0,22.739,0.022,41.524,0.022
		c38.516,0,66.23-28.884,66.23-68.575C135.81,98.732,108.328,70.315,70.284,70.315z M59.864,171.868
		c-1.204,0-2.393-0.162-3.564-0.442H38.166v-66.101H56.3v-0.147c1.171-0.125,2.36-0.202,3.564-0.202
		c18.472,0,33.446,14.975,33.446,33.446C93.31,156.894,78.336,171.868,59.864,171.868z"/>
	<path fill="#FFBC00" d="M275.324,203.478V29.921h31.237v173.557L275.324,203.478L275.324,203.478z"/>
	<path fill="#FFBC00" d="M240.041,70.334v0.003c0,0-22.739-0.022-41.524-0.022c-27.99,0-50.214,15.298-60.302,38.87
		c3.605,8.605,5.622,18.281,5.622,28.767c0,10.847-2.132,20.843-5.928,29.705c9.878,23.579,32.029,38.87,59.901,38.87
		c15.836,0,57.968-0.088,69.109-0.11V70.334H240.041z M199.466,171.869c-18.472,0-33.446-14.974-33.446-33.446
		c0-18.472,14.974-33.446,33.446-33.446c18.472,0,33.446,14.974,33.446,33.446C232.912,156.895,217.938,171.869,199.466,171.869z"/>
	<path fill="#FFBC00" d="M364.694,254.008h-33.582l27.029-67.261L311.403,70.849h35.7l28.888,84.311l28.317-75.862l39.087-8.45
		L364.694,254.008z"/>
	<g>
		<path fill="#FFBC00" d="M442.684,257.06c-30.53,0-54.253-19.728-57.069-52.607h33.582c1.41,14.562,9.161,21.609,23.487,21.609
			c13.855,0,23.483-8.689,23.483-21.138c0-7.043-2.817-13.623-7.982-17.614c-5.169-3.991-7.047-4.698-30.063-13.387
			c-23.251-8.689-36.167-25.365-36.167-47.205c0-27.478,22.544-49.319,50.493-49.319s49.79,18.789,51.432,49.319h-33.35
			c-0.939-11.742-7.515-18.317-18.317-18.317c-10.567,0-17.846,7.279-17.846,17.614c0,6.34,3.288,11.742,9.628,15.736
			c2.349,1.41,2.82,1.642,19.26,7.75c35.228,13.152,44.856,28.417,44.856,51.904C498.108,232.87,473.918,257.06,442.684,257.06z"/>
	</g>
	<path fill="#FFFFFF" d="M472.246,39.093c0,0,3.487,17.43-48.807,33.991c0,0-47.066-80.184-121.149-64.496
		c0,0-33.119,3.487-101.101,71.469s-90.641,69.724-95.873,64.492s4.175-18.807,10.46-31.377
		c7.842-15.689,1.742-43.579-71.469-43.579l3.487,5.228c0,0,45.32,3.487,54.035,26.149c0,0,1.742,5.228-5.228,19.175
		c-6.97,13.947-10.806,26.565,1.742,36.605c13.074,10.46,45.32-10.46,76.697-36.605S277.713,15.73,324.952,19.044
		c49.68,3.487,85.412,57.522,85.412,57.522s-28.763,8.715-33.119,45.32c0,0-2.614,20.917,15.689,38.351h29.632
		c0,0,20.917-34.864,9.588-69.724L420.825,94c0,0,8.715,24.404-5.228,55.781h-15.689c0,0-14.238-14.164-9.433-33.56
		c1.999-8.078,7.132-15.029,13.98-19.753c7.36-5.077,20.037-10.545,35.545-16.41C472.246,67.852,473.119,53.909,472.246,39.093z"/>
</g>
<g id="Layer_2">
	<path fill="#FFFFFF" d="M77.014,256.052V223.57c0-11.863-4.485-15.066-11.112-15.066c-7.909,0-11.97,4.275-11.97,18.38v29.168
		H39.72V223.57c0-11.646-4.057-15.066-11.539-15.066c-8.229,0-11.539,4.381-11.539,18.38v29.168H2.43v-59.194l13.034,5.556
		c4.168-5.022,8.443-6.944,15.387-6.944c8.122,0,13.358,2.776,17.415,9.19c4.809-6.41,10.685-9.19,19.017-9.19
		c15.6,0,23.936,8.652,23.936,26.392v34.194H77.014V256.052z"/>
	<path fill="#FFFFFF" d="M156.281,232.76h-45.839c1.708,7.158,7.905,11.646,16.348,11.646c5.876,0,9.404-1.602,13.034-5.876h15.493
		c-3.951,12.183-16.241,18.914-28.207,18.914c-18.06,0-32.054-13.465-32.054-30.773c0-17.415,13.785-31.2,31.2-31.2
		c17.629,0,30.56,13.465,30.56,31.841C156.815,229.446,156.708,230.728,156.281,232.76z M126.469,208.504
		c-8.443,0-14.212,4.168-16.454,11.753h32.802C141.001,212.672,135.228,208.504,126.469,208.504z"/>
	<path fill="#FFFFFF" d="M225.7,256.052v-59.194h14.212v59.197H225.7V256.052z M225.806,192.322V178.11h14.212v14.212H225.806z"/>
	<path fill="#FFFFFF" d="M293.524,256.052v-7.695c-5.663,6.41-11.326,9.083-19.661,9.083c-17.309,0-29.812-12.931-29.812-30.773
		c0-18.06,12.607-31.2,30.133-31.2c8.549,0,14.426,2.776,19.341,9.297v-7.909h13.034v59.197L293.524,256.052L293.524,256.052z
		 M275.681,208.504c-10.151,0-17.309,7.695-17.309,18.483c0,10.365,7.158,17.415,17.522,17.415c10.792,0,17.202-7.691,17.202-17.522
		C293.096,216.092,285.832,208.504,275.681,208.504z"/>
	<path fill="#FFFFFF" d="M208.192,178.11v23.984c-4.168-4.595-11.005-7.375-18.487-7.375c-16.561,0-29.595,13.892-29.595,31.627
		c0,17.522,12.927,31.094,29.705,31.094c8.015,0,13.892-2.673,19.554-9.083v7.695h13.034V178.11H208.192z M192.058,244.406
		c-9.937,0-17.629-8.225-17.629-18.697c0-10.044,7.588-17.953,17.309-17.953c9.937,0,17.522,8.015,17.522,18.38
		C209.26,236.39,201.675,244.406,192.058,244.406z"/>
</g>
</svg>
